<svg version="1.1" id="Layer_1" xmlns="http://www.w3.org/2000/svg" xmlns:xlink="http://www.w3.org/1999/xlink" x="0px" y="0px"
	 width="100%" viewBox="0 0 323 323" enable-background="new 0 0 323 323" xml:space="preserve">
<path fill="#ABD6D4" opacity="1.000000" stroke="none" 
	d="
M153.000000,1.000000 
	C159.021149,1.000000 165.042297,1.000000 171.820496,1.295629 
	C193.676224,2.682611 213.822006,7.807687 232.760040,17.013695 
	C253.396500,27.045326 271.297119,40.750904 286.111633,58.485878 
	C304.134125,80.061234 316.028564,104.440201 321.171753,132.083038 
	C322.217346,137.702881 323.062469,143.360046 324.000000,149.000000 
	C324.000000,157.687561 324.000000,166.375137 323.705078,175.817474 
	C321.166809,188.240555 319.919312,200.211044 316.488129,211.518921 
	C307.238159,242.003494 289.640625,267.133484 265.091217,287.457367 
	C244.212646,304.742218 220.436844,315.790314 193.913864,321.019226 
	C187.977432,322.189606 181.973083,323.015533 176.000000,324.000000 
	C167.312439,324.000000 158.624863,324.000000 149.186188,323.706055 
	C133.549026,322.015564 119.086388,318.872528 105.057755,313.573730 
	C85.092804,306.032715 67.433571,294.815765 51.913425,280.319031 
	C36.370331,265.800873 24.307802,248.731339 15.558480,229.255783 
	C9.194541,215.089981 4.790143,200.462357 2.935418,185.050674 
	C2.370611,180.357437 1.649517,175.683029 1.000000,171.000000 
	C1.000000,165.645065 1.000000,160.290146 1.296317,154.176697 
	C2.401275,146.360901 2.748604,139.214264 4.095283,132.261185 
	C11.465377,94.208481 30.079493,62.468250 59.918159,37.922409 
	C83.245949,18.732538 110.062210,6.461873 140.433853,2.889406 
	C144.638474,2.394837 148.812057,1.636322 153.000000,1.000000 
M122.362450,93.167526 
	C100.700752,93.167625 79.038300,93.260956 57.378014,93.086029 
	C53.241825,93.052635 51.979580,94.301369 51.992535,98.461884 
	C52.125355,141.118408 52.138859,183.775726 51.977634,226.432053 
	C51.960705,230.911087 53.336403,232.067749 57.670029,232.017426 
	C77.995880,231.781296 98.333679,232.184158 118.649208,231.660461 
	C125.837791,231.475159 133.244247,230.124725 140.079895,227.874451 
	C154.156418,223.240494 162.852768,213.227859 163.699966,198.174332 
	C164.521667,183.573868 159.298187,171.383469 145.951752,163.759293 
	C143.994385,162.641174 141.924026,161.720856 139.762497,160.637085 
	C155.925583,149.179550 161.854080,134.224060 156.074844,117.276276 
	C150.958038,102.271034 140.759079,92.847527 122.362450,93.167526 
M213.433701,129.943253 
	C208.618210,131.153366 203.519989,131.717316 199.033844,133.680161 
	C173.079285,145.036148 161.971786,176.081055 174.342300,203.432556 
	C188.321274,234.340408 233.799362,242.042664 258.471497,217.856384 
	C261.893280,214.501968 264.614319,210.432693 268.296326,205.912918 
	C262.037750,204.114868 257.305939,203.099548 252.846970,201.377686 
	C248.382080,199.653519 245.612640,200.352112 242.210846,204.158218 
	C230.582672,217.168427 204.915970,216.659714 197.789398,194.922607 
	C196.053909,189.629120 196.614960,188.846252 202.283493,188.840027 
	C222.281586,188.818100 242.279892,188.878387 262.277802,188.813095 
	C274.087860,188.774536 273.163849,190.361130 272.957397,178.180847 
	C272.433594,147.275238 245.205185,124.890694 213.433701,129.943253 
M237.498383,116.926392 
	C239.328690,116.926430 241.158981,116.926483 242.989288,116.926483 
	C255.140060,116.926476 254.997528,116.927422 254.916351,104.707153 
	C254.891266,100.930351 253.617218,99.890083 249.968781,99.924690 
	C233.164719,100.084129 216.358261,99.994431 199.552673,99.994232 
	C187.803696,99.994087 187.973282,99.995239 187.900360,111.944313 
	C187.875809,115.967232 189.215530,117.048897 193.071793,116.999702 
	C207.545532,116.815056 222.023056,116.925995 237.498383,116.926392 
z"/>
<path fill="#FFFFFF" opacity="1.000000" stroke="none" 
	d="
M152.531342,1.000000 
	C148.812057,1.636322 144.638474,2.394837 140.433853,2.889406 
	C110.062210,6.461873 83.245949,18.732538 59.918159,37.922409 
	C30.079493,62.468250 11.465377,94.208481 4.095283,132.261185 
	C2.748604,139.214264 2.401275,146.360901 1.296317,153.709091 
	C1.000000,103.073235 1.000000,52.146473 1.000000,1.000000 
	C51.354015,1.000000 101.708351,1.000000 152.531342,1.000000 
z"/>
<path fill="#FFFFFF" opacity="1.000000" stroke="none" 
	d="
M1.000000,171.468658 
	C1.649517,175.683029 2.370611,180.357437 2.935418,185.050674 
	C4.790143,200.462357 9.194541,215.089981 15.558480,229.255783 
	C24.307802,248.731339 36.370331,265.800873 51.913425,280.319031 
	C67.433571,294.815765 85.092804,306.032715 105.057755,313.573730 
	C119.086388,318.872528 133.549026,322.015564 148.717529,323.706055 
	C99.738449,324.000000 50.476898,324.000000 1.000000,324.000000 
	C1.000000,273.312653 1.000000,222.624985 1.000000,171.468658 
z"/>
<path fill="#FFFFFF" opacity="1.000000" stroke="none" 
	d="
M324.000000,148.531342 
	C323.062469,143.360046 322.217346,137.702881 321.171753,132.083038 
	C316.028564,104.440201 304.134125,80.061234 286.111633,58.485878 
	C271.297119,40.750904 253.396500,27.045326 232.760040,17.013695 
	C213.822006,7.807687 193.676224,2.682611 172.288757,1.295629 
	C222.592697,1.000000 273.185394,1.000000 324.000000,1.000000 
	C324.000000,50.020672 324.000000,99.041679 324.000000,148.531342 
z"/>
<path fill="#FFFFFF" opacity="1.000000" stroke="none" 
	d="
M176.468658,324.000000 
	C181.973083,323.015533 187.977432,322.189606 193.913864,321.019226 
	C220.436844,315.790314 244.212646,304.742218 265.091217,287.457367 
	C289.640625,267.133484 307.238159,242.003494 316.488129,211.518921 
	C319.919312,200.211044 321.166809,188.240555 323.705078,176.286133 
	C324.000000,225.260330 324.000000,274.520660 324.000000,324.000000 
	C274.979309,324.000000 225.958313,324.000000 176.468658,324.000000 
z"/>
<path fill="#FDFEFE" opacity="1.000000" stroke="none" 
	d="
M122.841003,93.167870 
	C140.759079,92.847527 150.958038,102.271034 156.074844,117.276276 
	C161.854080,134.224060 155.925583,149.179550 139.762497,160.637085 
	C141.924026,161.720856 143.994385,162.641174 145.951752,163.759293 
	C159.298187,171.383469 164.521667,183.573868 163.699966,198.174332 
	C162.852768,213.227859 154.156418,223.240494 140.079895,227.874451 
	C133.244247,230.124725 125.837791,231.475159 118.649208,231.660461 
	C98.333679,232.184158 77.995880,231.781296 57.670029,232.017426 
	C53.336403,232.067749 51.960705,230.911087 51.977634,226.432053 
	C52.138859,183.775726 52.125355,141.118408 51.992535,98.461884 
	C51.979580,94.301369 53.241825,93.052635 57.378014,93.086029 
	C79.038300,93.260956 100.700752,93.167625 122.841003,93.167870 
M121.139526,172.857864 
	C108.983612,172.849915 96.826187,172.946762 84.672707,172.770691 
	C80.982040,172.717239 79.686356,173.973160 79.770744,177.670090 
	C79.968292,186.324615 80.026291,194.992874 79.750168,203.643112 
	C79.615707,207.855560 81.097305,209.138611 85.194321,208.980453 
	C96.657341,208.537918 108.131927,208.366333 119.603455,208.181183 
	C129.327942,208.024216 135.404419,202.772598 136.028595,193.812653 
	C136.913071,181.116089 132.616211,174.692856 121.139526,172.857864 
M84.686073,151.072891 
	C94.843040,151.072998 105.000053,151.091339 115.156960,151.067749 
	C124.124390,151.046921 129.098938,146.921036 130.772949,138.186234 
	C132.850784,127.344360 127.069481,117.372192 117.994011,117.068367 
	C106.517708,116.684181 95.019218,116.997726 83.531113,116.906883 
	C80.654305,116.884132 79.787468,118.201523 79.810974,120.866547 
	C79.888802,129.690750 79.895874,138.516556 79.812073,147.340652 
	C79.785133,150.176712 81.043671,151.283707 84.686073,151.072891 
z"/>
<path fill="#FEFEFE" opacity="1.000000" stroke="none" 
	d="
M213.877594,129.905090 
	C245.205185,124.890694 272.433594,147.275238 272.957397,178.180847 
	C273.163849,190.361130 274.087860,188.774536 262.277802,188.813095 
	C242.279892,188.878387 222.281586,188.818100 202.283493,188.840027 
	C196.614960,188.846252 196.053909,189.629120 197.789398,194.922607 
	C204.915970,216.659714 230.582672,217.168427 242.210846,204.158218 
	C245.612640,200.352112 248.382080,199.653519 252.846970,201.377686 
	C257.305939,203.099548 262.037750,204.114868 268.296326,205.912918 
	C264.614319,210.432693 261.893280,214.501968 258.471497,217.856384 
	C233.799362,242.042664 188.321274,234.340408 174.342300,203.432556 
	C161.971786,176.081055 173.079285,145.036148 199.033844,133.680161 
	C203.519989,131.717316 208.618210,131.153366 213.877594,129.905090 
M215.500549,171.996887 
	C225.784439,171.996887 236.068344,171.996887 246.329895,171.996887 
	C246.590012,157.465942 236.638062,147.972168 221.757065,147.925949 
	C206.466049,147.878479 196.446991,157.235031 196.659271,171.996887 
	C202.591263,171.996887 208.546066,171.996887 215.500549,171.996887 
z"/>
<path fill="#FDFEFE" opacity="1.000000" stroke="none" 
	d="
M236.998779,116.926277 
	C222.023056,116.925995 207.545532,116.815056 193.071793,116.999702 
	C189.215530,117.048897 187.875809,115.967232 187.900360,111.944313 
	C187.973282,99.995239 187.803696,99.994087 199.552673,99.994232 
	C216.358261,99.994431 233.164719,100.084129 249.968781,99.924690 
	C253.617218,99.890083 254.891266,100.930351 254.916351,104.707153 
	C254.997528,116.927422 255.140060,116.926476 242.989288,116.926483 
	C241.158981,116.926483 239.328690,116.926430 236.998779,116.926277 
z"/>
<path fill="#ABD6D4" opacity="1.000000" stroke="none" 
	d="
M121.590881,172.881348 
	C132.616211,174.692856 136.913071,181.116089 136.028595,193.812653 
	C135.404419,202.772598 129.327942,208.024216 119.603455,208.181183 
	C108.131927,208.366333 96.657341,208.537918 85.194321,208.980453 
	C81.097305,209.138611 79.615707,207.855560 79.750168,203.643112 
	C80.026291,194.992874 79.968292,186.324615 79.770744,177.670090 
	C79.686356,173.973160 80.982040,172.717239 84.672707,172.770691 
	C96.826187,172.946762 108.983612,172.849915 121.590881,172.881348 
z"/>
<path fill="#ABD6D4" opacity="1.000000" stroke="none" 
	d="
M84.211731,151.070099 
	C81.043671,151.283707 79.785133,150.176712 79.812073,147.340652 
	C79.895874,138.516556 79.888802,129.690750 79.810974,120.866547 
	C79.787468,118.201523 80.654305,116.884132 83.531113,116.906883 
	C95.019218,116.997726 106.517708,116.684181 117.994011,117.068367 
	C127.069481,117.372192 132.850784,127.344360 130.772949,138.186234 
	C129.098938,146.921036 124.124390,151.046921 115.156960,151.067749 
	C105.000053,151.091339 94.843040,151.072998 84.211731,151.070099 
z"/>
<path fill="#ACD6D4" opacity="1.000000" stroke="none" 
	d="
M215.000717,171.996887 
	C208.546066,171.996887 202.591263,171.996887 196.659271,171.996887 
	C196.446991,157.235031 206.466049,147.878479 221.757065,147.925949 
	C236.638062,147.972168 246.590012,157.465942 246.329895,171.996887 
	C236.068344,171.996887 225.784439,171.996887 215.000717,171.996887 
z"/>
</svg>