<svg version="1.1" id="Layer_1" xmlns="http://www.w3.org/2000/svg" xmlns:xlink="http://www.w3.org/1999/xlink" x="0px" y="0px"
	 width="100%" viewBox="0 0 323 323" enable-background="new 0 0 323 323" xml:space="preserve">
<path fill="#ABD6D4" opacity="1.000000" stroke="none" 
	d="
M324.000000,155.000000 
	C324.000000,159.689255 324.000000,164.378510 323.703644,169.824753 
	C322.097260,180.408478 321.662323,190.449402 319.318939,200.023193 
	C311.130310,233.477646 294.265900,261.796875 268.074799,284.544037 
	C246.237610,303.509766 221.173279,315.477112 192.927338,321.009705 
	C186.663315,322.236664 180.311432,323.015076 174.000000,324.000000 
	C166.645752,324.000000 159.291504,324.000000 151.182312,323.704926 
	C146.657944,322.960052 142.887772,322.516205 139.119171,322.059509 
	C107.526459,318.231171 79.937973,305.073364 56.197109,284.435608 
	C30.077198,261.729736 12.796733,233.214890 5.079272,199.255753 
	C3.409360,191.907639 2.343883,184.422195 1.000000,177.000000 
	C1.000000,167.645767 1.000000,158.291550 1.293982,148.186234 
	C2.146796,142.843079 2.415761,138.193710 3.310069,133.667938 
	C10.834595,95.588928 28.821781,63.642685 58.814079,38.597984 
	C80.146332,20.784748 104.351822,9.242014 131.591202,4.027505 
	C138.018463,2.797118 144.528198,1.997683 151.000000,1.000000 
	C158.354248,1.000000 165.708496,1.000000 173.817444,1.294974 
	C178.677002,2.058413 182.789810,2.466576 186.885345,3.005868 
	C203.825562,5.236521 219.937119,10.439453 235.040939,18.185236 
	C253.603149,27.704611 270.050659,40.093403 283.765259,56.124325 
	C304.823059,80.738663 318.160919,108.652344 322.061462,140.929291 
	C322.629425,145.628983 323.350037,150.310226 324.000000,155.000000 
M139.500153,81.998077 
	C134.669998,81.998299 129.839722,81.977806 125.009689,82.002266 
	C102.127693,82.118149 82.419754,101.250870 82.150993,124.216164 
	C81.852791,149.696014 81.893890,175.183853 82.137497,200.664856 
	C82.356499,223.573135 102.081856,242.931625 124.872208,242.987335 
	C149.855728,243.048416 174.842224,243.195160 199.821045,242.846680 
	C205.164062,242.772125 210.853958,241.584442 215.740860,239.442276 
	C233.584717,231.620392 242.411667,217.127670 242.665741,198.053116 
	C243.002609,172.763107 242.916306,147.436432 241.916397,122.168869 
	C241.015442,99.401665 221.732361,82.050728 198.961838,82.006279 
	C179.474655,81.968239 159.987320,81.998199 139.500153,81.998077 
z"/>
<path fill="#FFFFFF" opacity="1.000000" stroke="none" 
	d="
M324.000000,154.531342 
	C323.350037,150.310226 322.629425,145.628983 322.061462,140.929291 
	C318.160919,108.652344 304.823059,80.738663 283.765259,56.124325 
	C270.050659,40.093403 253.603149,27.704611 235.040939,18.185236 
	C219.937119,10.439453 203.825562,5.236521 186.885345,3.005868 
	C182.789810,2.466576 178.677002,2.058413 174.286072,1.294974 
	C223.927963,1.000000 273.855927,1.000000 324.000000,1.000000 
	C324.000000,52.020691 324.000000,103.041687 324.000000,154.531342 
z"/>
<path fill="#FFFFFF" opacity="1.000000" stroke="none" 
	d="
M174.468658,324.000000 
	C180.311432,323.015076 186.663315,322.236664 192.927338,321.009705 
	C221.173279,315.477112 246.237610,303.509766 268.074799,284.544037 
	C294.265900,261.796875 311.130310,233.477646 319.318939,200.023193 
	C321.662323,190.449402 322.097260,180.408478 323.703644,170.290863 
	C324.000000,221.259384 324.000000,272.518768 324.000000,324.000000 
	C274.312653,324.000000 224.624985,324.000000 174.468658,324.000000 
z"/>
<path fill="#FFFFFF" opacity="1.000000" stroke="none" 
	d="
M150.531342,1.000000 
	C144.528198,1.997683 138.018463,2.797118 131.591202,4.027505 
	C104.351822,9.242014 80.146332,20.784748 58.814079,38.597984 
	C28.821781,63.642685 10.834595,95.588928 3.310069,133.667938 
	C2.415761,138.193710 2.146796,142.843079 1.293982,147.717575 
	C1.000000,99.072266 1.000000,50.144524 1.000000,1.000000 
	C50.687351,1.000000 100.375015,1.000000 150.531342,1.000000 
z"/>
<path fill="#FFFFFF" opacity="1.000000" stroke="none" 
	d="
M1.000000,177.468658 
	C2.343883,184.422195 3.409360,191.907639 5.079272,199.255753 
	C12.796733,233.214890 30.077198,261.729736 56.197109,284.435608 
	C79.937973,305.073364 107.526459,318.231171 139.119171,322.059509 
	C142.887772,322.516205 146.657944,322.960052 150.713684,323.704926 
	C101.073738,324.000000 51.147472,324.000000 1.000000,324.000000 
	C1.000000,275.312653 1.000000,226.624985 1.000000,177.468658 
z"/>
<path fill="#FEFFFF" opacity="1.000000" stroke="none" 
	d="
M140.000107,81.998077 
	C159.987320,81.998199 179.474655,81.968239 198.961838,82.006279 
	C221.732361,82.050728 241.015442,99.401665 241.916397,122.168869 
	C242.916306,147.436432 243.002609,172.763107 242.665741,198.053116 
	C242.411667,217.127670 233.584717,231.620392 215.740860,239.442276 
	C210.853958,241.584442 205.164062,242.772125 199.821045,242.846680 
	C174.842224,243.195160 149.855728,243.048416 124.872208,242.987335 
	C102.081856,242.931625 82.356499,223.573135 82.137497,200.664856 
	C81.893890,175.183853 81.852791,149.696014 82.150993,124.216164 
	C82.419754,101.250870 102.127693,82.118149 125.009689,82.002266 
	C129.839722,81.977806 134.669998,81.998299 140.000107,81.998077 
M128.446152,132.973816 
	C115.559029,147.445221 113.455673,168.974854 123.319641,185.447952 
	C133.645767,202.692871 153.217484,211.100189 172.544830,206.593353 
	C204.141251,199.225555 217.612885,161.687866 198.363251,135.668823 
	C182.253250,113.893539 147.783051,111.054497 128.446152,132.973816 
M219.720337,113.108406 
	C218.704880,111.421928 217.934616,109.508751 216.625961,108.093353 
	C213.287811,104.482895 207.950974,103.821335 203.849701,106.212624 
	C199.808578,108.568832 197.963211,113.258492 199.082764,118.326843 
	C200.021667,122.577446 204.209213,125.816315 208.982727,125.984047 
	C215.321167,126.206757 219.545181,121.503304 219.720337,113.108406 
z"/>
<path fill="#ACD7D5" opacity="1.000000" stroke="none" 
	d="
M128.694366,132.716949 
	C147.783051,111.054497 182.253250,113.893539 198.363251,135.668823 
	C217.612885,161.687866 204.141251,199.225555 172.544830,206.593353 
	C153.217484,211.100189 133.645767,202.692871 123.319641,185.447952 
	C113.455673,168.974854 115.559029,147.445221 128.694366,132.716949 
M183.073639,184.584045 
	C193.476685,174.014709 195.663254,160.459686 188.962326,148.078812 
	C182.687378,136.484985 169.689011,130.411255 156.523178,132.921021 
	C143.842697,135.338257 134.314972,145.188095 132.157303,158.110641 
	C130.085678,170.517960 136.544495,183.403412 147.878555,189.474899 
	C159.376190,195.634018 172.670700,193.952240 183.073639,184.584045 
z"/>
<path fill="#ADD7D5" opacity="1.000000" stroke="none" 
	d="
M219.786224,113.494690 
	C219.545181,121.503304 215.321167,126.206757 208.982727,125.984047 
	C204.209213,125.816315 200.021667,122.577446 199.082764,118.326843 
	C197.963211,113.258492 199.808578,108.568832 203.849701,106.212624 
	C207.950974,103.821335 213.287811,104.482895 216.625961,108.093353 
	C217.934616,109.508751 218.704880,111.421928 219.786224,113.494690 
z"/>
<path fill="#FEFFFF" opacity="1.000000" stroke="none" 
	d="
M182.820374,184.835388 
	C172.670700,193.952240 159.376190,195.634018 147.878555,189.474899 
	C136.544495,183.403412 130.085678,170.517960 132.157303,158.110641 
	C134.314972,145.188095 143.842697,135.338257 156.523178,132.921021 
	C169.689011,130.411255 182.687378,136.484985 188.962326,148.078812 
	C195.663254,160.459686 193.476685,174.014709 182.820374,184.835388 
z"/>
</svg>