<svg version="1.1" id="Layer_1" xmlns="http://www.w3.org/2000/svg" xmlns:xlink="http://www.w3.org/1999/xlink" x="0px" y="0px"
	 width="100%" viewBox="0 0 323 323" enable-background="new 0 0 323 323" xml:space="preserve">
<path fill="#ABD6D4" opacity="1.000000" stroke="none" 
	d="
M158.000000,0.999999 
	C160.700012,1.000000 163.400024,1.000000 166.843338,1.297137 
	C172.860535,2.052800 178.137817,2.475696 183.407700,2.976427 
	C200.280701,4.579657 216.234467,9.585481 231.433136,16.817163 
	C260.200684,30.505058 282.858856,51.129459 299.742096,78.152100 
	C311.799622,97.450882 319.179413,118.378975 322.051453,140.926422 
	C322.691650,145.952133 323.350006,150.975540 324.000000,156.000000 
	C324.000000,160.024551 324.000000,164.049088 323.703278,168.828979 
	C322.948273,174.517181 322.507996,179.451797 322.028412,184.382568 
	C320.240906,202.761948 314.569916,220.052475 306.175110,236.324539 
	C296.212708,255.635101 282.999969,272.490936 266.139526,286.474792 
	C247.463715,301.964294 226.636154,313.095734 203.087906,318.927795 
	C194.814041,320.976959 186.367630,322.329407 178.000000,324.000000 
	C167.979111,324.000000 157.958206,324.000000 147.186234,323.706024 
	C143.959717,323.216827 141.454193,323.202942 139.013580,322.797913 
	C118.586739,319.408020 98.776062,313.781006 81.325661,302.440643 
	C69.310135,294.632233 57.480621,286.088959 47.218140,276.167267 
	C38.288460,267.534088 31.097830,256.889069 24.172253,246.447601 
	C14.567491,231.966751 8.562614,215.783264 4.967450,198.768433 
	C3.510686,191.873993 2.314667,184.924469 1.000000,178.000000 
	C1.000000,168.312439 1.000000,158.624878 1.293977,148.186234 
	C2.108080,143.008057 2.362962,138.530746 3.189780,134.161697 
	C10.625617,94.869362 29.621134,62.117695 60.708439,37.101597 
	C87.848717,15.261687 119.028168,2.823197 154.308517,1.958814 
	C155.546097,1.928492 156.769821,1.332397 158.000000,0.999999 
M142.860168,243.827835 
	C150.189056,243.828949 157.517929,243.832611 164.846817,243.830429 
	C171.998978,243.828293 172.002975,243.825684 172.004135,236.906693 
	C172.006851,220.583023 171.787399,204.254700 172.135117,187.938431 
	C172.242920,182.879807 173.305756,177.653809 174.958557,172.858490 
	C177.642242,165.072174 184.771973,161.911072 195.127777,162.967545 
	C201.711868,163.639236 206.561783,168.273773 207.907791,175.702667 
	C208.615295,179.607437 208.996216,183.622040 209.023941,187.590530 
	C209.142548,204.579651 209.196533,221.571564 208.988678,238.558960 
	C208.937378,242.751465 210.282730,244.058289 214.400467,243.909805 
	C222.052658,243.633835 229.730560,243.612396 237.380615,243.916443 
	C241.670547,244.086914 243.251404,242.908737 243.107590,238.364471 
	C242.781097,228.047577 243.131378,217.711349 242.973984,207.386520 
	C242.761047,193.418304 242.945602,179.402206 241.789307,165.504013 
	C240.932983,155.211182 236.637466,146.077194 227.845200,139.464905 
	C214.842773,129.686310 184.369263,129.564529 172.789368,147.240738 
	C172.505493,147.674072 171.844879,147.860626 170.829788,148.492096 
	C170.829788,145.384018 170.671539,142.889648 170.866470,140.423187 
	C171.167297,136.616486 169.796570,134.982910 165.773407,135.105469 
	C158.284805,135.333618 150.779648,135.327927 143.290619,135.106857 
	C139.336945,134.990158 138.055038,136.488297 138.107391,140.358734 
	C138.276321,152.849045 138.168991,165.343094 138.168930,177.835693 
	C138.168823,197.990433 138.168961,218.145157 138.169983,238.299896 
	C138.170120,240.999222 137.821808,243.941177 142.860168,243.827835 
M89.665268,135.914276 
	C86.843315,135.910736 84.002243,135.341232 84.017975,139.920181 
	C84.132393,173.212967 84.104927,206.506409 84.034966,239.799438 
	C84.028580,242.840027 85.143875,243.910599 88.134071,243.868774 
	C96.622162,243.749985 105.114662,243.731659 113.601906,243.877914 
	C116.805641,243.933105 117.984215,242.853165 117.975563,239.563751 
	C117.888535,206.437256 117.890686,173.310364 117.971001,140.183838 
	C117.978920,136.918594 116.820358,135.798767 113.596184,135.866104 
	C105.942116,136.025894 98.282402,135.915161 89.665268,135.914276 
M115.747643,88.787422 
	C113.606720,87.231445 111.637230,85.324570 109.295166,84.180283 
	C99.194008,79.245079 87.556618,83.702911 82.995628,94.055069 
	C78.537857,104.172928 83.376381,116.011734 93.664238,120.158852 
	C101.850113,123.458641 110.750748,121.006233 116.533333,113.857697 
	C122.268387,106.767914 122.142776,98.173805 115.747643,88.787422 
z"/>
<path fill="#FFFFFF" opacity="1.000000" stroke="none" 
	d="
M324.000000,155.531342 
	C323.350006,150.975540 322.691650,145.952133 322.051453,140.926422 
	C319.179413,118.378975 311.799622,97.450882 299.742096,78.152100 
	C282.858856,51.129459 260.200684,30.505058 231.433136,16.817163 
	C216.234467,9.585481 200.280701,4.579657 183.407700,2.976427 
	C178.137817,2.475696 172.860535,2.052800 167.293320,1.297137 
	C219.259857,1.000000 271.519714,1.000000 324.000000,1.000000 
	C324.000000,52.354019 324.000000,103.708351 324.000000,155.531342 
z"/>
<path fill="#FFFFFF" opacity="1.000000" stroke="none" 
	d="
M157.531342,0.999999 
	C156.769821,1.332397 155.546097,1.928492 154.308517,1.958814 
	C119.028168,2.823197 87.848717,15.261687 60.708439,37.101597 
	C29.621134,62.117695 10.625617,94.869362 3.189780,134.161697 
	C2.362962,138.530746 2.108080,143.008057 1.293977,147.717575 
	C1.000000,99.070602 1.000000,50.141205 1.000000,1.000000 
	C53.020702,1.000000 105.041695,1.000000 157.531342,0.999999 
z"/>
<path fill="#FFFFFF" opacity="1.000000" stroke="none" 
	d="
M178.468658,324.000000 
	C186.367630,322.329407 194.814041,320.976959 203.087906,318.927795 
	C226.636154,313.095734 247.463715,301.964294 266.139526,286.474792 
	C282.999969,272.490936 296.212708,255.635101 306.175110,236.324539 
	C314.569916,220.052475 320.240906,202.761948 322.028412,184.382568 
	C322.507996,179.451797 322.948273,174.517181 323.703278,169.292175 
	C324.000000,220.591492 324.000000,272.182983 324.000000,324.000000 
	C275.645996,324.000000 227.291656,324.000000 178.468658,324.000000 
z"/>
<path fill="#FFFFFF" opacity="1.000000" stroke="none" 
	d="
M1.000000,178.468658 
	C2.314667,184.924469 3.510686,191.873993 4.967450,198.768433 
	C8.562614,215.783264 14.567491,231.966751 24.172253,246.447601 
	C31.097830,256.889069 38.288460,267.534088 47.218140,276.167267 
	C57.480621,286.088959 69.310135,294.632233 81.325661,302.440643 
	C98.776062,313.781006 118.586739,319.408020 139.013580,322.797913 
	C141.454193,323.202942 143.959717,323.216827 146.717575,323.706024 
	C98.406334,324.000000 49.812668,324.000000 1.000000,324.000000 
	C1.000000,275.645996 1.000000,227.291656 1.000000,178.468658 
z"/>
<path fill="#FEFEFE" opacity="1.000000" stroke="none" 
	d="
M142.404373,243.821396 
	C137.821808,243.941177 138.170120,240.999222 138.169983,238.299896 
	C138.168961,218.145157 138.168823,197.990433 138.168930,177.835693 
	C138.168991,165.343094 138.276321,152.849045 138.107391,140.358734 
	C138.055038,136.488297 139.336945,134.990158 143.290619,135.106857 
	C150.779648,135.327927 158.284805,135.333618 165.773407,135.105469 
	C169.796570,134.982910 171.167297,136.616486 170.866470,140.423187 
	C170.671539,142.889648 170.829788,145.384018 170.829788,148.492096 
	C171.844879,147.860626 172.505493,147.674072 172.789368,147.240738 
	C184.369263,129.564529 214.842773,129.686310 227.845200,139.464905 
	C236.637466,146.077194 240.932983,155.211182 241.789307,165.504013 
	C242.945602,179.402206 242.761047,193.418304 242.973984,207.386520 
	C243.131378,217.711349 242.781097,228.047577 243.107590,238.364471 
	C243.251404,242.908737 241.670547,244.086914 237.380615,243.916443 
	C229.730560,243.612396 222.052658,243.633835 214.400467,243.909805 
	C210.282730,244.058289 208.937378,242.751465 208.988678,238.558960 
	C209.196533,221.571564 209.142548,204.579651 209.023941,187.590530 
	C208.996216,183.622040 208.615295,179.607437 207.907791,175.702667 
	C206.561783,168.273773 201.711868,163.639236 195.127777,162.967545 
	C184.771973,161.911072 177.642242,165.072174 174.958557,172.858490 
	C173.305756,177.653809 172.242920,182.879807 172.135117,187.938431 
	C171.787399,204.254700 172.006851,220.583023 172.004135,236.906693 
	C172.002975,243.825684 171.998978,243.828293 164.846817,243.830429 
	C157.517929,243.832611 150.189056,243.828949 142.404373,243.821396 
z"/>
<path fill="#FDFEFE" opacity="1.000000" stroke="none" 
	d="
M90.145119,135.914017 
	C98.282402,135.915161 105.942116,136.025894 113.596184,135.866104 
	C116.820358,135.798767 117.978920,136.918594 117.971001,140.183838 
	C117.890686,173.310364 117.888535,206.437256 117.975563,239.563751 
	C117.984215,242.853165 116.805641,243.933105 113.601906,243.877914 
	C105.114662,243.731659 96.622162,243.749985 88.134071,243.868774 
	C85.143875,243.910599 84.028580,242.840027 84.034966,239.799438 
	C84.104927,206.506409 84.132393,173.212967 84.017975,139.920181 
	C84.002243,135.341232 86.843315,135.910736 90.145119,135.914017 
z"/>
<path fill="#FEFEFE" opacity="1.000000" stroke="none" 
	d="
M115.961609,89.083557 
	C122.142776,98.173805 122.268387,106.767914 116.533333,113.857697 
	C110.750748,121.006233 101.850113,123.458641 93.664238,120.158852 
	C83.376381,116.011734 78.537857,104.172928 82.995628,94.055069 
	C87.556618,83.702911 99.194008,79.245079 109.295166,84.180283 
	C111.637230,85.324570 113.606720,87.231445 115.961609,89.083557 
z"/>
</svg>