<svg version="1.1" id="Layer_1" xmlns="http://www.w3.org/2000/svg" xmlns:xlink="http://www.w3.org/1999/xlink" x="0px" y="0px"
	 width="100%" viewBox="0 0 323 322" enable-background="new 0 0 323 322" xml:space="preserve">
<path fill="#ABD6D4" opacity="1.000000" stroke="none" 
	d="
M146.000000,1.000000 
	C156.687561,1.000000 167.375122,1.000000 178.809479,1.292920 
	C198.361923,3.402104 216.316711,8.451736 233.242035,16.721436 
	C254.787796,27.248684 273.173615,41.830379 288.252441,60.637421 
	C304.970337,81.488823 315.966461,104.892662 321.023132,131.097397 
	C322.168976,137.035294 323.015625,143.030945 324.000000,149.000000 
	C324.000000,157.687561 324.000000,166.375137 323.706085,175.813812 
	C322.943268,180.333344 322.555298,184.113922 321.991577,187.868134 
	C319.408997,205.067383 314.055115,221.456284 305.952637,236.756958 
	C296.676910,254.273315 284.793121,269.813385 269.694672,283.007904 
	C250.452515,299.823608 228.782684,311.698639 204.112579,318.080444 
	C196.494003,320.051270 188.708862,321.378235 181.000000,323.000000 
	C168.979111,323.000000 156.958206,323.000000 144.196030,322.708344 
	C140.351089,321.946228 137.238144,321.529755 134.145279,320.996674 
	C110.896324,316.989655 89.514496,308.305725 70.285217,294.676208 
	C54.742264,283.659515 41.291172,270.419708 30.285738,254.779907 
	C16.802031,235.618240 8.063922,214.485641 4.008542,191.433304 
	C2.816195,184.655533 1.992597,177.812912 1.000000,171.000000 
	C1.000000,165.311966 1.000000,159.623917 1.295627,153.179169 
	C1.719812,151.774582 1.942142,151.129791 1.963314,150.478439 
	C2.619749,130.284592 8.043051,111.230568 16.542057,93.103554 
	C26.676788,71.487793 41.158070,53.153667 59.560226,37.800201 
	C78.117599,22.317234 99.116669,11.844728 122.380753,5.821339 
	C130.149170,3.809990 138.121109,2.584645 146.000000,1.000000 
M155.008820,136.401123 
	C154.649307,133.934647 154.403015,131.445297 153.910263,129.005737 
	C152.003204,119.564186 150.787628,109.893799 147.885803,100.762672 
	C143.208908,86.045952 130.252930,81.148064 116.363464,87.901939 
	C114.568504,88.774750 112.613831,89.505829 111.105972,90.753235 
	C97.307953,102.167908 83.592430,113.682281 69.987335,125.055145 
	C77.644295,138.067474 77.644272,138.067444 88.814011,131.052841 
	C88.955017,130.964294 89.101517,130.884506 89.243393,130.797272 
	C94.000214,127.872948 96.835152,127.983734 99.894859,132.582611 
	C102.996429,137.244400 105.989700,142.274109 107.601013,147.577011 
	C112.774841,164.604309 117.243782,181.844818 122.070717,198.978821 
	C125.542412,211.302170 128.089203,224.185944 137.176849,233.900482 
	C140.518509,237.472656 145.241882,240.526733 149.903046,241.929047 
	C159.643600,244.859497 168.138687,240.077866 176.112015,235.138947 
	C188.425995,227.511353 198.263901,217.084091 207.466141,206.056946 
	C223.712265,186.589066 239.350845,166.652206 249.340698,143.077576 
	C255.901520,127.594963 258.456970,111.710373 250.383240,95.808098 
	C245.010895,85.226562 235.635193,81.054062 224.421951,81.408981 
	C210.799393,81.840179 199.445007,87.631927 190.435349,98.001595 
	C183.468445,106.020142 178.790268,115.077209 176.456924,125.329994 
	C181.769821,124.791428 186.504990,123.990952 191.252914,123.906319 
	C198.127762,123.783791 201.954254,127.355064 201.902557,134.242035 
	C201.869553,138.638184 201.631958,143.571686 199.670242,147.311890 
	C194.127731,157.879333 187.721359,168.000153 181.474625,178.186096 
	C180.297150,180.106110 178.430466,181.698105 176.628082,183.119827 
	C173.243011,185.790009 170.020447,185.377151 167.811630,181.589905 
	C165.980316,178.449982 163.996506,175.204865 163.111511,171.742752 
	C160.190063,160.313843 157.736237,148.765411 155.008820,136.401123 
z"/>
<path fill="#FFFFFF" opacity="1.000000" stroke="none" 
	d="
M145.531342,1.000000 
	C138.121109,2.584645 130.149170,3.809990 122.380753,5.821339 
	C99.116669,11.844728 78.117599,22.317234 59.560226,37.800201 
	C41.158070,53.153667 26.676788,71.487793 16.542057,93.103554 
	C8.043051,111.230568 2.619749,130.284592 1.963314,150.478439 
	C1.942142,151.129791 1.719812,151.774582 1.295627,152.711212 
	C1.000000,102.408051 1.000000,51.816109 1.000000,1.000000 
	C49.020660,1.000000 97.041672,1.000000 145.531342,1.000000 
z"/>
<path fill="#FFFFFF" opacity="1.000000" stroke="none" 
	d="
M1.000000,171.468658 
	C1.992597,177.812912 2.816195,184.655533 4.008542,191.433304 
	C8.063922,214.485641 16.802031,235.618240 30.285738,254.779907 
	C41.291172,270.419708 54.742264,283.659515 70.285217,294.676208 
	C89.514496,308.305725 110.896324,316.989655 134.145279,320.996674 
	C137.238144,321.529755 140.351089,321.946228 143.727371,322.708344 
	C96.404106,323.000000 48.808212,323.000000 1.000000,323.000000 
	C1.000000,272.645966 1.000000,222.291641 1.000000,171.468658 
z"/>
<path fill="#FFFFFF" opacity="1.000000" stroke="none" 
	d="
M324.000000,148.531342 
	C323.015625,143.030945 322.168976,137.035294 321.023132,131.097397 
	C315.966461,104.892662 304.970337,81.488823 288.252441,60.637421 
	C273.173615,41.830379 254.787796,27.248684 233.242035,16.721436 
	C216.316711,8.451736 198.361923,3.402104 179.278137,1.292920 
	C227.261078,1.000000 275.522156,1.000000 324.000000,1.000000 
	C324.000000,50.020679 324.000000,99.041679 324.000000,148.531342 
z"/>
<path fill="#FFFFFF" opacity="1.000000" stroke="none" 
	d="
M181.468658,323.000000 
	C188.708862,321.378235 196.494003,320.051270 204.112579,318.080444 
	C228.782684,311.698639 250.452515,299.823608 269.694672,283.007904 
	C284.793121,269.813385 296.676910,254.273315 305.952637,236.756958 
	C314.055115,221.456284 319.408997,205.067383 321.991577,187.868134 
	C322.555298,184.113922 322.943268,180.333344 323.706085,176.282455 
	C324.000000,224.925995 324.000000,273.851990 324.000000,323.000000 
	C276.645996,323.000000 229.291656,323.000000 181.468658,323.000000 
z"/>
<path fill="#FEFFFF" opacity="1.000000" stroke="none" 
	d="
M155.055847,136.832001 
	C157.736237,148.765411 160.190063,160.313843 163.111511,171.742752 
	C163.996506,175.204865 165.980316,178.449982 167.811630,181.589905 
	C170.020447,185.377151 173.243011,185.790009 176.628082,183.119827 
	C178.430466,181.698105 180.297150,180.106110 181.474625,178.186096 
	C187.721359,168.000153 194.127731,157.879333 199.670242,147.311890 
	C201.631958,143.571686 201.869553,138.638184 201.902557,134.242035 
	C201.954254,127.355064 198.127762,123.783791 191.252914,123.906319 
	C186.504990,123.990952 181.769821,124.791428 176.456924,125.329994 
	C178.790268,115.077209 183.468445,106.020142 190.435349,98.001595 
	C199.445007,87.631927 210.799393,81.840179 224.421951,81.408981 
	C235.635193,81.054062 245.010895,85.226562 250.383240,95.808098 
	C258.456970,111.710373 255.901520,127.594963 249.340698,143.077576 
	C239.350845,166.652206 223.712265,186.589066 207.466141,206.056946 
	C198.263901,217.084091 188.425995,227.511353 176.112015,235.138947 
	C168.138687,240.077866 159.643600,244.859497 149.903046,241.929047 
	C145.241882,240.526733 140.518509,237.472656 137.176849,233.900482 
	C128.089203,224.185944 125.542412,211.302170 122.070717,198.978821 
	C117.243782,181.844818 112.774841,164.604309 107.601013,147.577011 
	C105.989700,142.274109 102.996429,137.244400 99.894859,132.582611 
	C96.835152,127.983734 94.000214,127.872948 89.243393,130.797272 
	C89.101517,130.884506 88.955017,130.964294 88.814011,131.052841 
	C77.644272,138.067444 77.644295,138.067474 69.987335,125.055145 
	C83.592430,113.682281 97.307953,102.167908 111.105972,90.753235 
	C112.613831,89.505829 114.568504,88.774750 116.363464,87.901939 
	C130.252930,81.148064 143.208908,86.045952 147.885803,100.762672 
	C150.787628,109.893799 152.003204,119.564186 153.910263,129.005737 
	C154.403015,131.445297 154.649307,133.934647 155.055847,136.832001 
z"/>
</svg>